<?xml version="1.0" encoding="UTF-8"?>
<!DOCTYPE svg PUBLIC "-//W3C//DTD SVG 1.1//EN" "http://www.w3.org/Graphics/SVG/1.1/DTD/svg11.dtd">
<!-- Creator: CorelDRAW -->
<svg xmlns="http://www.w3.org/2000/svg" xml:space="preserve" width="86px" height="86px" style="shape-rendering:geometricPrecision; text-rendering:geometricPrecision; image-rendering:optimizeQuality; fill-rule:evenodd; clip-rule:evenodd"
viewBox="0 0 4.83091 4.83926"
 xmlns:xlink="http://www.w3.org/1999/xlink">
 <defs>
  <style type="text/css">
   <![CDATA[
    .fil0 {fill:black;fill-rule:nonzero}
   ]]>
  </style>
 </defs>
 <g id="Layer_x0020_1">
  <metadata id="CorelCorpID_0Corel-Layer"/>
  <path class="fil0" d="M4.83091 4.59805l-1.3392 -1.33926c0.65711,-0.781921 0.623854,-1.94649 -0.108182,-2.67852 -0.773573,-0.77364 -2.02969,-0.77364 -2.80327,0 -0.77364,0.773573 -0.77364,2.02969 0,2.80327 0.382646,0.382646 0.898384,0.582317 1.40577,0.582317 0.457506,0 0.906731,-0.158067 1.28103,-0.465853l1.33926 1.33926 0.224579 -0.241208zm-4.01779 -1.44738c-0.640482,-0.640548 -0.640482,-1.68865 0,-2.3292 0.324481,-0.324415 0.740383,-0.482415 1.16463,-0.482415 0.424183,0 0.848433,0.158001 1.16457,0.482415 0.640482,0.640548 0.640482,1.68865 0,2.3292 -0.640548,0.640482 -1.68865,0.640482 -2.3292,0z"/>
 </g>
</svg>
